<mxfile host="65bd71144e">
    <diagram id="72hulpMSd7DvX2BBB4kW" name="Page-1">
        <mxGraphModel dx="1086" dy="1861" grid="1" gridSize="10" guides="1" tooltips="1" connect="1" arrows="1" fold="1" page="1" pageScale="1" pageWidth="827" pageHeight="1169" math="0" shadow="0">
            <root>
                <mxCell id="0"/>
                <mxCell id="1" parent="0"/>
                <mxCell id="2" value="" style="edgeStyle=none;html=1;" edge="1" parent="1" source="3">
                    <mxGeometry relative="1" as="geometry">
                        <mxPoint x="385.30999999999995" y="80" as="targetPoint"/>
                    </mxGeometry>
                </mxCell>
                <mxCell id="3" value="Start" style="strokeWidth=2;html=1;shape=mxgraph.flowchart.terminator;whiteSpace=wrap;" vertex="1" parent="1">
                    <mxGeometry x="335.31" y="-30" width="100" height="60" as="geometry"/>
                </mxCell>
                <mxCell id="4" value="" style="edgeStyle=none;html=1;" edge="1" parent="1" source="5" target="7">
                    <mxGeometry relative="1" as="geometry"/>
                </mxCell>
                <mxCell id="5" value="get listArray" style="shape=parallelogram;html=1;strokeWidth=2;perimeter=parallelogramPerimeter;whiteSpace=wrap;rounded=1;arcSize=12;size=0.23;" vertex="1" parent="1">
                    <mxGeometry x="335.31" y="80" width="100" height="60" as="geometry"/>
                </mxCell>
                <mxCell id="6" value="" style="edgeStyle=none;html=1;fontFamily=Helvetica;" edge="1" parent="1" source="7" target="9">
                    <mxGeometry relative="1" as="geometry"/>
                </mxCell>
                <mxCell id="7" value="sum = 0" style="rounded=1;whiteSpace=wrap;html=1;absoluteArcSize=1;arcSize=14;strokeWidth=2;" vertex="1" parent="1">
                    <mxGeometry x="350.31" y="170" width="70" height="60" as="geometry"/>
                </mxCell>
                <mxCell id="8" value="" style="edgeStyle=none;html=1;fontFamily=Helvetica;fontSize=9;" edge="1" parent="1" source="9">
                    <mxGeometry relative="1" as="geometry">
                        <mxPoint x="385.30999999999995" y="400" as="targetPoint"/>
                    </mxGeometry>
                </mxCell>
                <mxCell id="9" value="&lt;pre style=&quot;overflow-wrap: break-word&quot;&gt;&lt;font color=&quot;#ffffff&quot; face=&quot;Helvetica&quot;&gt;arraySize = listArray.length &lt;/font&gt;&lt;/pre&gt;" style="rounded=1;whiteSpace=wrap;html=1;absoluteArcSize=1;arcSize=14;strokeWidth=2;" vertex="1" parent="1">
                    <mxGeometry x="300" y="260" width="157.58" height="110" as="geometry"/>
                </mxCell>
                <mxCell id="10" style="edgeStyle=none;rounded=0;html=1;entryX=-0.002;entryY=0.417;entryDx=0;entryDy=0;entryPerimeter=0;fontFamily=Helvetica;fontSize=9;" edge="1" parent="1" source="11" target="11">
                    <mxGeometry relative="1" as="geometry">
                        <Array as="points">
                            <mxPoint x="385" y="880"/>
                            <mxPoint x="160" y="880"/>
                            <mxPoint x="160" y="760"/>
                        </Array>
                    </mxGeometry>
                </mxCell>
                <mxCell id="11" value="&lt;pre style=&quot;overflow-wrap: break-word&quot;&gt;&lt;pre style=&quot;overflow-wrap: break-word&quot;&gt;&lt;font color=&quot;#ffffff&quot; face=&quot;Helvetica&quot;&gt;sum += listArray[loopCounter]&lt;/font&gt;&lt;/pre&gt;&lt;/pre&gt;" style="rounded=1;whiteSpace=wrap;html=1;absoluteArcSize=1;arcSize=14;strokeWidth=2;" vertex="1" parent="1">
                    <mxGeometry x="290.31" y="710" width="190" height="120" as="geometry"/>
                </mxCell>
                <mxCell id="12" value="" style="edgeStyle=none;rounded=0;html=1;fontFamily=Helvetica;fontSize=9;" edge="1" parent="1" source="14" target="11">
                    <mxGeometry relative="1" as="geometry"/>
                </mxCell>
                <mxCell id="13" style="edgeStyle=none;rounded=0;html=1;entryX=0.5;entryY=0;entryDx=0;entryDy=0;fontFamily=Helvetica;fontSize=9;" edge="1" parent="1" source="14" target="16">
                    <mxGeometry relative="1" as="geometry">
                        <Array as="points">
                            <mxPoint x="610" y="540"/>
                            <mxPoint x="610" y="900"/>
                            <mxPoint x="385" y="900"/>
                        </Array>
                    </mxGeometry>
                </mxCell>
                <mxCell id="14" value="&lt;pre style=&quot;overflow-wrap: break-word&quot;&gt;&lt;font face=&quot;Helvetica&quot; color=&quot;#ffffff&quot; style=&quot;font-size: 11px;&quot;&gt;for (let loopCounter = 0; loopCounter &amp;lt; arraySize; loopCounter++ &lt;/font&gt;&lt;/pre&gt;" style="strokeWidth=2;html=1;shape=mxgraph.flowchart.decision;whiteSpace=wrap;fontFamily=Helvetica;fontSize=9;" vertex="1" parent="1">
                    <mxGeometry x="190" y="400" width="355.31" height="280" as="geometry"/>
                </mxCell>
                <mxCell id="15" value="" style="edgeStyle=none;rounded=0;html=1;fontFamily=Helvetica;fontSize=9;" edge="1" parent="1" source="16">
                    <mxGeometry relative="1" as="geometry">
                        <mxPoint x="385.30999999999995" y="1070" as="targetPoint"/>
                    </mxGeometry>
                </mxCell>
                <mxCell id="16" value="&lt;pre style=&quot;overflow-wrap: break-word&quot;&gt;&lt;pre style=&quot;overflow-wrap: break-word&quot;&gt;&lt;font color=&quot;#ffffff&quot; face=&quot;Helvetica&quot;&gt;mean = sum / arraySize&lt;/font&gt;&lt;/pre&gt;&lt;/pre&gt;" style="rounded=1;whiteSpace=wrap;html=1;absoluteArcSize=1;arcSize=14;strokeWidth=2;" vertex="1" parent="1">
                    <mxGeometry x="313.03999999999996" y="920" width="144.54" height="110" as="geometry"/>
                </mxCell>
                <mxCell id="17" value="Yes" style="text;html=1;resizable=0;autosize=1;align=center;verticalAlign=middle;points=[];fillColor=none;strokeColor=none;rounded=0;fontFamily=Helvetica;fontSize=9;" vertex="1" parent="1">
                    <mxGeometry x="405.30999999999995" y="680" width="30" height="20" as="geometry"/>
                </mxCell>
                <mxCell id="18" value="No" style="text;html=1;resizable=0;autosize=1;align=center;verticalAlign=middle;points=[];fillColor=none;strokeColor=none;rounded=0;fontFamily=Helvetica;fontSize=9;" vertex="1" parent="1">
                    <mxGeometry x="560" y="510" width="30" height="20" as="geometry"/>
                </mxCell>
                <mxCell id="19" value="" style="edgeStyle=none;rounded=0;html=1;fontFamily=Helvetica;fontSize=9;" edge="1" parent="1" source="20" target="21">
                    <mxGeometry relative="1" as="geometry"/>
                </mxCell>
                <mxCell id="20" value="return mean" style="shape=parallelogram;html=1;strokeWidth=2;perimeter=parallelogramPerimeter;whiteSpace=wrap;rounded=1;arcSize=12;size=0.23;" vertex="1" parent="1">
                    <mxGeometry x="335.31" y="1070" width="100" height="60" as="geometry"/>
                </mxCell>
                <mxCell id="21" value="Stop" style="strokeWidth=2;html=1;shape=mxgraph.flowchart.terminator;whiteSpace=wrap;" vertex="1" parent="1">
                    <mxGeometry x="335.31" y="1160" width="100" height="60" as="geometry"/>
                </mxCell>
            </root>
        </mxGraphModel>
    </diagram>
</mxfile>